<mxfile host="app.diagrams.net" modified="2021-09-05T08:41:50.534Z" agent="5.0 (Windows NT 10.0; Win64; x64) AppleWebKit/537.36 (KHTML, like Gecko) Chrome/93.0.4577.63 Safari/537.36" etag="qd-_zY04sA0-vkKL1OYO" version="15.0.6" type="github">
  <diagram id="C5RBs43oDa-KdzZeNtuy" name="Page-1">
    <mxGraphModel dx="1422" dy="794" grid="1" gridSize="10" guides="1" tooltips="1" connect="1" arrows="1" fold="1" page="1" pageScale="1" pageWidth="827" pageHeight="1169" math="0" shadow="0">
      <root>
        <mxCell id="WIyWlLk6GJQsqaUBKTNV-0" />
        <mxCell id="WIyWlLk6GJQsqaUBKTNV-1" parent="WIyWlLk6GJQsqaUBKTNV-0" />
        <mxCell id="x9rUvAMbq14WsiKmxg5Z-0" value="PruductÂ " style="swimlane;fontStyle=1;align=center;verticalAlign=top;childLayout=stackLayout;horizontal=1;startSize=26;horizontalStack=0;resizeParent=1;resizeParentMax=0;resizeLast=0;collapsible=1;marginBottom=0;whiteSpace=wrap;fontSize=12;arcSize=16;shadow=0;rounded=0;sketch=0;glass=0;swimlaneLine=1;strokeWidth=1;" vertex="1" parent="WIyWlLk6GJQsqaUBKTNV-1">
          <mxGeometry x="279" y="80" width="270" height="100" as="geometry">
            <mxRectangle x="210" y="100" width="350" height="70" as="alternateBounds" />
          </mxGeometry>
        </mxCell>
        <mxCell id="x9rUvAMbq14WsiKmxg5Z-1" value="- price: float = 0.0" style="text;strokeColor=none;fillColor=none;align=left;verticalAlign=top;spacingLeft=4;spacingRight=4;overflow=hidden;rotatable=0;points=[[0,0.5],[1,0.5]];portConstraint=eastwest;" vertex="1" parent="x9rUvAMbq14WsiKmxg5Z-0">
          <mxGeometry y="26" width="270" height="28" as="geometry" />
        </mxCell>
        <mxCell id="x9rUvAMbq14WsiKmxg5Z-2" value="" style="line;strokeWidth=1;fillColor=none;align=left;verticalAlign=middle;spacingTop=-1;spacingLeft=3;spacingRight=3;rotatable=0;labelPosition=right;points=[];portConstraint=eastwest;" vertex="1" parent="x9rUvAMbq14WsiKmxg5Z-0">
          <mxGeometry y="54" width="270" height="8" as="geometry" />
        </mxCell>
        <mxCell id="x9rUvAMbq14WsiKmxg5Z-3" value="+ GetPrice(): float&#xa;+ SetPrice(price:float = 0): float" style="text;strokeColor=none;fillColor=none;align=left;verticalAlign=top;spacingLeft=4;spacingRight=4;overflow=hidden;rotatable=0;points=[[0,0.5],[1,0.5]];portConstraint=eastwest;" vertex="1" parent="x9rUvAMbq14WsiKmxg5Z-0">
          <mxGeometry y="62" width="270" height="38" as="geometry" />
        </mxCell>
        <mxCell id="x9rUvAMbq14WsiKmxg5Z-6" value="MobilePhone" style="swimlane;fontStyle=0;childLayout=stackLayout;horizontal=1;startSize=26;fillColor=none;horizontalStack=0;resizeParent=1;resizeParentMax=0;resizeLast=0;collapsible=1;marginBottom=0;rounded=0;shadow=0;glass=0;sketch=0;fontSize=12;strokeWidth=1;verticalAlign=top;html=0;" vertex="1" parent="WIyWlLk6GJQsqaUBKTNV-1">
          <mxGeometry x="344" y="260" width="140" height="52" as="geometry" />
        </mxCell>
        <mxCell id="x9rUvAMbq14WsiKmxg5Z-7" value="+ name: string" style="text;strokeColor=none;fillColor=none;align=left;verticalAlign=top;spacingLeft=4;spacingRight=4;overflow=hidden;rotatable=0;points=[[0,0.5],[1,0.5]];portConstraint=eastwest;" vertex="1" parent="x9rUvAMbq14WsiKmxg5Z-6">
          <mxGeometry y="26" width="140" height="26" as="geometry" />
        </mxCell>
      </root>
    </mxGraphModel>
  </diagram>
</mxfile>
